<svg width="25" height="24" viewBox="0 0 25 24" fill="none" xmlns="http://www.w3.org/2000/svg">
<path d="M21.75 12H9.395M5.034 12H3.25M5.034 12C5.034 11.4218 5.26368 10.8673 5.67251 10.4585C6.08134 10.0497 6.63583 9.82001 7.214 9.82001C7.79217 9.82001 8.34666 10.0497 8.75549 10.4585C9.16432 10.8673 9.394 11.4218 9.394 12C9.394 12.5782 9.16432 13.1327 8.75549 13.5415C8.34666 13.9503 7.79217 14.18 7.214 14.18C6.63583 14.18 6.08134 13.9503 5.67251 13.5415C5.26368 13.1327 5.034 12.5782 5.034 12ZM21.75 18.607H16.002M16.002 18.607C16.002 19.1853 15.7718 19.7404 15.3628 20.1494C14.9539 20.5583 14.3993 20.788 13.821 20.788C13.2428 20.788 12.6883 20.5573 12.2795 20.1485C11.8707 19.7397 11.641 19.1852 11.641 18.607M16.002 18.607C16.002 18.0287 15.7718 17.4746 15.3628 17.0657C14.9539 16.6567 14.3993 16.427 13.821 16.427C13.2428 16.427 12.6883 16.6567 12.2795 17.0655C11.8707 17.4743 11.641 18.0288 11.641 18.607M11.641 18.607H3.25M21.75 5.39301H18.645M14.284 5.39301H3.25M14.284 5.39301C14.284 4.81484 14.5137 4.26035 14.9225 3.85152C15.3313 3.44269 15.8858 3.21301 16.464 3.21301C16.7503 3.21301 17.0338 3.2694 17.2983 3.37896C17.5627 3.48851 17.8031 3.64909 18.0055 3.85152C18.2079 4.05395 18.3685 4.29427 18.4781 4.55876C18.5876 4.82325 18.644 5.10673 18.644 5.39301C18.644 5.67929 18.5876 5.96277 18.4781 6.22726C18.3685 6.49175 18.2079 6.73207 18.0055 6.93451C17.8031 7.13694 17.5627 7.29751 17.2983 7.40707C17.0338 7.51663 16.7503 7.57301 16.464 7.57301C15.8858 7.57301 15.3313 7.34333 14.9225 6.93451C14.5137 6.52568 14.284 5.97118 14.284 5.39301Z" stroke="#2E2E2E" stroke-width="1.5" stroke-miterlimit="10" stroke-linecap="round"/>
</svg>
