<svg width="14" height="14" viewBox="0 0 14 14" fill="none" xmlns="http://www.w3.org/2000/svg">
<path d="M7.73684 0.736842C7.73684 0.329895 7.40695 0 7 0C6.59305 0 6.26316 0.329895 6.26316 0.736842V6.26316H0.736842C0.329896 6.26316 0 6.59305 0 7C0 7.40695 0.329896 7.73684 0.736842 7.73684H6.26316V13.2632C6.26316 13.6701 6.59305 14 7 14C7.40695 14 7.73684 13.6701 7.73684 13.2632V7.73684H13.2632C13.6701 7.73684 14 7.40695 14 7C14 6.59305 13.6701 6.26316 13.2632 6.26316H7.73684V0.736842Z" fill="white"/>
</svg>
