<svg width="144" height="125" viewBox="0 0 144 125" fill="none" xmlns="http://www.w3.org/2000/svg">
<g filter="url(#filter0_d_1_152)">
<path fill-rule="evenodd" clip-rule="evenodd" d="M31.3763 53.283C30.8325 53.6785 30.7283 54.4189 31.1437 54.9368L42.8548 69.5365C43.2702 70.0544 44.0479 70.1536 44.5918 69.758L56.7791 60.8951C57.323 60.4996 57.4272 59.7591 57.0118 59.2412L45.3006 44.6415C44.8852 44.1237 44.1076 44.0245 43.5637 44.42L31.3763 53.283ZM49.9085 62.0292C51.1062 62.0292 52.0771 61.1047 52.0771 59.9644C52.0771 58.824 51.1062 57.8996 49.9085 57.8996C48.7109 57.8996 47.74 58.824 47.74 59.9644C47.74 61.1047 48.7109 62.0292 49.9085 62.0292Z" fill="url(#paint0_linear_1_152)"/>
<path d="M83.0561 6.27923C78.4092 8.34402 75.6211 6.5742 75.6211 6.5742L78.6456 13.4856C78.8597 13.4037 79.0936 13.3585 79.3386 13.3585H85.5344C85.6786 13.3585 85.8189 13.3742 85.9536 13.4037L88.9422 6.5742C88.9422 6.5742 86.1948 4.8846 83.0561 6.27923Z" fill="url(#paint1_linear_1_152)"/>
<path d="M81.1527 28.1916C80.8417 27.9069 80.6862 27.5108 80.6862 27.0032C80.6862 26.4586 80.8482 26.0253 81.1721 25.7035C81.509 25.3817 81.9559 25.1898 82.5131 25.1279V28.8786C81.93 28.7053 81.4766 28.4763 81.1527 28.1916Z" fill="url(#paint2_linear_1_152)"/>
<path d="M85.1173 34.1518C84.7933 34.4984 84.3464 34.715 83.7763 34.8016V31.0324C84.3593 31.2057 84.8063 31.4347 85.1173 31.7194C85.4412 31.9917 85.6031 32.3755 85.6031 32.8706C85.6031 33.3657 85.4412 33.7928 85.1173 34.1518Z" fill="url(#paint3_linear_1_152)"/>
<path fill-rule="evenodd" clip-rule="evenodd" d="M66.9653 36.5299C67.6222 27.5818 75.9964 18.708 78.1939 16.5228C78.5094 16.758 78.9068 16.8982 79.3386 16.8982H85.5344C85.8857 16.8982 86.2141 16.8054 86.4943 16.6442C88.769 18.9149 96.3044 26.9865 97.6164 35.4814C98.1398 38.8701 97.7424 41.5404 96.7006 43.5902C96.0478 43.8354 95.4382 44.0724 94.8643 44.3009C94.9526 44.1858 95.0347 44.0691 95.1106 43.9511C95.8754 42.7617 96.0741 41.2326 94.9569 40.0181C93.951 38.9245 92.1569 38.4311 89.8716 38.4311C88.9957 38.4311 87.9661 38.5545 86.9036 38.707C86.4388 38.7737 85.9776 38.8443 85.5084 38.9161C84.852 39.0166 84.1802 39.1195 83.4618 39.2172C81.0387 39.5468 78.5855 39.7392 76.4837 39.3389C75.4115 39.1347 74.2225 38.7715 72.8877 38.334C72.5907 38.2366 72.2862 38.1355 71.9755 38.0324C70.9157 37.6805 69.7833 37.3044 68.6224 36.9699C68.0823 36.8143 67.5294 36.6655 66.9653 36.5299ZM87.3522 34.5046C87.6761 33.9599 87.8381 33.3781 87.8381 32.7592C87.8381 31.9422 87.6502 31.3047 87.2745 30.8467C86.8987 30.3764 86.4388 30.036 85.8946 29.8255C85.3505 29.6027 84.6444 29.3923 83.7763 29.1942V25.1836C84.2298 25.295 84.5925 25.5055 84.8646 25.8149C85.1367 26.112 85.2922 26.4524 85.331 26.8361H87.702C87.6113 25.8087 87.2162 25.0041 86.5165 24.4223C85.8298 23.8282 84.9164 23.4816 83.7763 23.3826V21.8786H82.5131V23.3826C81.2952 23.494 80.3105 23.8901 79.559 24.5709C78.8076 25.2393 78.4319 26.0872 78.4319 27.1146C78.4319 27.9316 78.6197 28.5753 78.9955 29.0457C79.3841 29.5161 79.8506 29.8627 80.3947 30.0855C80.9389 30.2959 81.645 30.5063 82.5131 30.7168V34.8016C81.9819 34.715 81.5737 34.5169 81.2887 34.2075C81.0037 33.8856 80.8417 33.4833 80.8028 33.0006H78.4319C78.4319 34.0156 78.8076 34.8326 79.559 35.4515C80.3105 36.0704 81.2952 36.4356 82.5131 36.547V38.051H83.7763V36.547C84.6184 36.4727 85.344 36.2499 85.9529 35.8786C86.5748 35.5072 87.0413 35.0492 87.3522 34.5046Z" fill="url(#paint4_linear_1_152)"/>
<path d="M56.7235 57.6041L46.8102 45.2153C49.9081 41.9706 52.3864 38.431 58.8921 37.2511C65.3978 36.0712 71.5936 39.6109 76.2405 40.4958C80.8874 41.3807 86.7735 39.6109 89.8714 39.6109C98.5457 39.6109 93.8988 47.2801 85.2245 46.3952C76.5503 45.5103 73.1426 47.2801 76.8601 47.8701C80.5776 48.46 84.6049 49.3449 88.3225 48.165C92.04 46.9851 95.4477 44.9203 104.432 42.2656C111.619 40.1418 113.209 42.1673 113.106 43.4455C106.91 46.9851 93.1553 54.7724 87.7029 57.6041C80.8874 61.1438 82.1266 61.7337 73.1426 59.079C65.9554 56.9552 59.2019 57.2108 56.7235 57.6041Z" fill="url(#paint5_linear_1_152)"/>
<path d="M78.0992 15.1284C78.0992 14.6397 78.5153 14.2435 79.0286 14.2435H85.8441C86.3574 14.2435 86.7735 14.6397 86.7735 15.1284C86.7735 15.6172 86.3574 16.0134 85.8441 16.0134H79.0286C78.5153 16.0134 78.0992 15.6172 78.0992 15.1284Z" fill="#F54748"/>
</g>
<defs>
<filter id="filter0_d_1_152" x="0.889252" y="0.7276" width="142.221" height="124.273" filterUnits="userSpaceOnUse" color-interpolation-filters="sRGB">
<feFlood flood-opacity="0" result="BackgroundImageFix"/>
<feColorMatrix in="SourceAlpha" type="matrix" values="0 0 0 0 0 0 0 0 0 0 0 0 0 0 0 0 0 0 127 0" result="hardAlpha"/>
<feOffset dy="25"/>
<feGaussianBlur stdDeviation="15"/>
<feColorMatrix type="matrix" values="0 0 0 0 0.972549 0 0 0 0 0.262745 0 0 0 0 0.266667 0 0 0 0.1 0"/>
<feBlend mode="normal" in2="BackgroundImageFix" result="effect1_dropShadow_1_152"/>
<feBlend mode="normal" in="SourceGraphic" in2="effect1_dropShadow_1_152" result="shape"/>
</filter>
<linearGradient id="paint0_linear_1_152" x1="44.0777" y1="44.1777" x2="44.0777" y2="70.0003" gradientUnits="userSpaceOnUse">
<stop stop-color="#E32223"/>
<stop offset="1" stop-color="#FD6C6D"/>
</linearGradient>
<linearGradient id="paint1_linear_1_152" x1="82.4058" y1="5.7276" x2="82.4058" y2="44.3009" gradientUnits="userSpaceOnUse">
<stop stop-color="#FF7374"/>
<stop offset="1" stop-color="#E22123"/>
</linearGradient>
<linearGradient id="paint2_linear_1_152" x1="82.4058" y1="5.7276" x2="82.4058" y2="44.3009" gradientUnits="userSpaceOnUse">
<stop stop-color="#FF7374"/>
<stop offset="1" stop-color="#E22123"/>
</linearGradient>
<linearGradient id="paint3_linear_1_152" x1="82.4058" y1="5.7276" x2="82.4058" y2="44.3009" gradientUnits="userSpaceOnUse">
<stop stop-color="#FF7374"/>
<stop offset="1" stop-color="#E22123"/>
</linearGradient>
<linearGradient id="paint4_linear_1_152" x1="82.4058" y1="5.7276" x2="82.4058" y2="44.3009" gradientUnits="userSpaceOnUse">
<stop stop-color="#FF7374"/>
<stop offset="1" stop-color="#E22123"/>
</linearGradient>
<linearGradient id="paint5_linear_1_152" x1="85.0809" y1="38.9349" x2="87.816" y2="56.8274" gradientUnits="userSpaceOnUse">
<stop stop-color="#E22123"/>
<stop offset="1" stop-color="#FF7374"/>
</linearGradient>
</defs>
</svg>
