<svg width="144" height="103" viewBox="0 0 144 103" fill="none" xmlns="http://www.w3.org/2000/svg">
<g filter="url(#filter0_d_1_142)">
<path fill-rule="evenodd" clip-rule="evenodd" d="M101.528 44.5581C103.746 44.5581 105.292 42.8772 105.292 41.1072C105.292 39.3373 103.746 37.6563 101.528 37.6563C99.3096 37.6563 97.7632 39.3373 97.7632 41.1072C97.7632 42.8772 99.3096 44.5581 101.528 44.5581ZM101.528 47.6953C105.34 47.6953 108.43 44.7457 108.43 41.1072C108.43 37.4688 105.34 34.5192 101.528 34.5192C97.7161 34.5192 94.6261 37.4688 94.6261 41.1072C94.6261 44.7457 97.7161 47.6953 101.528 47.6953Z" fill="url(#paint0_linear_1_142)"/>
<path fill-rule="evenodd" clip-rule="evenodd" d="M58.2347 44.5581C60.453 44.5581 61.9993 42.8772 61.9993 41.1072C61.9993 39.3373 60.453 37.6563 58.2347 37.6563C56.0164 37.6563 54.4701 39.3373 54.4701 41.1072C54.4701 42.8772 56.0164 44.5581 58.2347 44.5581ZM58.2347 47.6953C62.0465 47.6953 65.1365 44.7457 65.1365 41.1072C65.1365 37.4688 62.0465 34.5192 58.2347 34.5192C54.423 34.5192 51.3329 37.4688 51.3329 41.1072C51.3329 44.7457 54.423 47.6953 58.2347 47.6953Z" fill="url(#paint1_linear_1_142)"/>
<path fill-rule="evenodd" clip-rule="evenodd" d="M47.358 5.65723C46.0569 5.65723 44.9716 6.65154 44.8579 7.94766L44.5635 11.3042H51.3332C52.0262 11.3042 52.588 11.866 52.588 12.559C52.588 13.2521 52.0262 13.8139 51.3332 13.8139H44.3433L44.1232 16.3236H48.8234C49.5165 16.3236 50.0783 16.8855 50.0783 17.5785C50.0783 18.2716 49.5165 18.8334 48.8234 18.8334H43.903L43.6829 21.3431H51.9606C52.6536 21.3431 53.2155 21.905 53.2155 22.598C53.2155 23.2911 52.6536 23.8529 51.9606 23.8529H43.4627L43.2426 26.3626H49.4508C50.1439 26.3626 50.7057 26.9245 50.7057 27.6175C50.7057 28.3105 50.1439 28.8724 49.4508 28.8724H43.0224L42.161 38.6921C42.0323 40.1591 43.1885 41.4211 44.6612 41.4211H50.0783C50.0783 36.9163 53.7301 33.2644 58.235 33.2644C62.7398 33.2644 66.3916 36.9163 66.3916 41.4211H87.3268H87.9748H93.3714C93.3714 36.9163 97.0233 33.2644 101.528 33.2644C106.033 33.2644 109.685 36.9163 109.685 41.4211H110.509C111.816 41.4211 112.904 40.4181 113.01 39.1156L113.992 27.0919C114.046 26.4244 113.832 25.7629 113.396 25.2544L105.416 15.9452C104.94 15.3889 104.244 15.0688 103.511 15.0688H94.2498C93.8192 15.0688 93.4048 14.9585 93.0408 14.7584L93.707 8.4297C93.863 6.94785 92.7011 5.65723 91.2111 5.65723H47.358ZM95.2314 17.2407C95.244 17.0773 95.3803 16.9511 95.5442 16.9511H102.234C102.584 16.9511 102.918 17.0974 103.156 17.3548L109.826 24.5812C110.012 24.7822 109.869 25.1078 109.596 25.1078H94.965C94.7823 25.1078 94.6382 24.9522 94.6523 24.77L95.2314 17.2407ZM63.9398 17.8646L64.1807 16.5244H58.0218L56.1696 26.9901H57.8863L58.6994 22.3671H62.1629L62.4038 21.042H58.9404L59.4975 17.8646H63.9398ZM71.7799 17.2322C71.2378 16.7603 70.4397 16.5244 69.3856 16.5244H65.7716L63.9194 26.9901H65.6361L66.3739 22.8038H67.6991L69.3555 26.9901H71.4035L69.5814 22.6532C70.4347 22.4524 71.1073 22.071 71.5992 21.5088C72.1012 20.9466 72.4124 20.3292 72.5329 19.6566C72.573 19.3956 72.5931 19.1998 72.5931 19.0693C72.5931 18.3164 72.322 17.704 71.7799 17.2322ZM70.8162 19.2199C70.8162 19.3604 70.8011 19.506 70.771 19.6566C70.6807 20.2087 70.4397 20.6454 70.0482 20.9667C69.6667 21.2879 69.1547 21.4485 68.5122 21.4485H66.6149L67.2473 17.8646H69.1447C69.7069 17.8646 70.1235 17.9851 70.3946 18.226C70.6756 18.4569 70.8162 18.7882 70.8162 19.2199ZM76.2047 21.0269L76.7618 17.8496H80.8276L81.0685 16.5094H75.2861L73.4339 26.9901H79.2164L79.4573 25.6499H75.3915L75.9788 22.3521H79.5928L79.8187 21.0269H76.2047ZM84.1015 21.0269L84.6587 17.8496H88.7245L88.9654 16.5094H83.183L81.3308 26.9901H87.1132L87.3542 25.6499H83.2884L83.8757 22.3521H87.4897L87.7156 21.0269H84.1015Z" fill="url(#paint2_linear_1_142)"/>
<path fill-rule="evenodd" clip-rule="evenodd" d="M38.7841 8.79468C38.0911 8.79468 37.5292 9.3565 37.5292 10.0496C37.5292 10.7426 38.0911 11.3044 38.7841 11.3044H53.8426C54.5356 11.3044 55.0975 10.7426 55.0975 10.0496C55.0975 9.3565 54.5356 8.79468 53.8426 8.79468H38.7841ZM33.7646 13.8142C33.0716 13.8142 32.5097 14.376 32.5097 15.069C32.5097 15.7621 33.0716 16.3239 33.7646 16.3239H53.8426C54.5356 16.3239 55.0975 15.7621 55.0975 15.069C55.0975 14.376 54.5356 13.8142 53.8426 13.8142H33.7646ZM35.0195 20.0885C35.0195 19.3955 35.5813 18.8337 36.2744 18.8337H53.8426C54.5356 18.8337 55.0975 19.3955 55.0975 20.0885C55.0975 20.7816 54.5356 21.3434 53.8426 21.3434H36.2744C35.5813 21.3434 35.0195 20.7816 35.0195 20.0885ZM31.2549 23.8532C30.5618 23.8532 30 24.415 30 25.108C30 25.8011 30.5618 26.3629 31.2549 26.3629H53.8426C54.5356 26.3629 55.0975 25.8011 55.0975 25.108C55.0975 24.415 54.5356 23.8532 53.8426 23.8532H31.2549Z" fill="url(#paint3_linear_1_142)"/>
</g>
<defs>
<filter id="filter0_d_1_142" x="0" y="0.657227" width="144" height="102.038" filterUnits="userSpaceOnUse" color-interpolation-filters="sRGB">
<feFlood flood-opacity="0" result="BackgroundImageFix"/>
<feColorMatrix in="SourceAlpha" type="matrix" values="0 0 0 0 0 0 0 0 0 0 0 0 0 0 0 0 0 0 127 0" result="hardAlpha"/>
<feOffset dy="25"/>
<feGaussianBlur stdDeviation="15"/>
<feColorMatrix type="matrix" values="0 0 0 0 0.972549 0 0 0 0 0.262745 0 0 0 0 0.266667 0 0 0 0.1 0"/>
<feBlend mode="normal" in2="BackgroundImageFix" result="effect1_dropShadow_1_142"/>
<feBlend mode="normal" in="SourceGraphic" in2="effect1_dropShadow_1_142" result="shape"/>
</filter>
<linearGradient id="paint0_linear_1_142" x1="101.528" y1="34.5192" x2="101.528" y2="47.6953" gradientUnits="userSpaceOnUse">
<stop stop-color="#FF6162"/>
<stop offset="1" stop-color="#F43435"/>
</linearGradient>
<linearGradient id="paint1_linear_1_142" x1="58.2347" y1="34.5192" x2="58.2347" y2="47.6953" gradientUnits="userSpaceOnUse">
<stop stop-color="#FF6162"/>
<stop offset="1" stop-color="#F43435"/>
</linearGradient>
<linearGradient id="paint2_linear_1_142" x1="49.8781" y1="5.65723" x2="113.038" y2="44.7716" gradientUnits="userSpaceOnUse">
<stop stop-color="#FF6263"/>
<stop offset="1" stop-color="#F43435"/>
</linearGradient>
<linearGradient id="paint3_linear_1_142" x1="32.6991" y1="8.79468" x2="59.7948" y2="19.0273" gradientUnits="userSpaceOnUse">
<stop stop-color="#F43435"/>
<stop offset="0.458015" stop-color="#FF6364"/>
<stop offset="0.651879" stop-color="#FE5E5E"/>
<stop offset="1" stop-color="#FE5C5D"/>
</linearGradient>
</defs>
</svg>
