<svg width="72" height="36" viewBox="0 0 72 36" fill="none" xmlns="http://www.w3.org/2000/svg">
<path fill-rule="evenodd" clip-rule="evenodd" d="M5.35804 0C4.05695 0 2.97159 0.994316 2.8579 2.29043L2.56347 5.64693H9.33316C10.0262 5.64693 10.588 6.20875 10.588 6.9018C10.588 7.59485 10.0262 8.15667 9.33316 8.15667H2.34332L2.12316 10.6664H6.82341C7.51646 10.6664 8.07828 11.2282 8.07828 11.9213C8.07828 12.6143 7.51646 13.1762 6.82341 13.1762H1.90301L1.68286 15.6859H9.96059C10.6536 15.6859 11.2155 16.2477 11.2155 16.9408C11.2155 17.6338 10.6536 18.1957 9.96059 18.1957H1.4627L1.24255 20.7054H7.45085C8.14389 20.7054 8.70572 21.2672 8.70572 21.9603C8.70572 22.6533 8.14389 23.2151 7.45085 23.2151H1.0224L0.161021 33.0348C0.0323359 34.5018 1.18852 35.7639 2.66116 35.7639H8.07828C8.07828 31.2591 11.7301 27.6072 16.235 27.6072C20.7398 27.6072 24.3916 31.2591 24.3916 35.7639H45.3268H45.9748H51.3714C51.3714 31.2591 55.0233 27.6072 59.5281 27.6072C64.0329 27.6072 67.6847 31.2591 67.6847 35.7639H68.5087C69.8157 35.7639 70.9038 34.7609 71.0102 33.4583L71.9917 21.4347C72.0462 20.7672 71.8316 20.1056 71.3958 19.5972L63.4165 10.288C62.9397 9.7317 62.2436 9.41155 61.511 9.41155H52.2498C51.8192 9.41155 51.4048 9.30127 51.0408 9.10116L51.707 2.77248C51.863 1.29063 50.7011 0 49.2111 0H5.35804ZM53.2314 11.5835C53.244 11.4201 53.3803 11.2939 53.5442 11.2939H60.2335C60.5838 11.2939 60.9181 11.4402 61.1556 11.6976L67.8262 18.924C68.0117 19.125 67.8691 19.4505 67.5956 19.4505H52.965C52.7823 19.4505 52.6382 19.295 52.6523 19.1128L53.2314 11.5835ZM21.9398 12.2074L22.1807 10.8672H16.0218L14.1696 21.3328H15.8863L16.6994 16.7099H20.1629L20.4038 15.3847H16.9404L17.4975 12.2074H21.9398ZM29.7799 11.5749C29.2378 11.1031 28.4397 10.8672 27.3856 10.8672H23.7716L21.9194 21.3328H23.6361L24.3739 17.1466H25.6991L27.3555 21.3328H29.4035L27.5814 16.996C28.4347 16.7952 29.1073 16.4137 29.5992 15.8516C30.1012 15.2894 30.4124 14.672 30.5329 13.9994C30.573 13.7383 30.5931 13.5426 30.5931 13.4121C30.5931 12.6592 30.322 12.0468 29.7799 11.5749ZM28.8162 13.5627C28.8162 13.7032 28.8011 13.8488 28.771 13.9994C28.6807 14.5515 28.4397 14.9882 28.0482 15.3095C27.6667 15.6307 27.1547 15.7913 26.5122 15.7913H24.6149L25.2473 12.2074H27.1447C27.7069 12.2074 28.1235 12.3279 28.3946 12.5688C28.6756 12.7997 28.8162 13.131 28.8162 13.5627ZM34.2047 15.3697L34.7618 12.1923H38.8276L39.0685 10.8521H33.2861L31.4339 21.3328H37.2164L37.4573 19.9926H33.3915L33.9788 16.6948H37.5928L37.8187 15.3697H34.2047ZM42.1015 15.3697L42.6587 12.1923H46.7245L46.9654 10.8521H41.183L39.3308 21.3328H45.1132L45.3542 19.9926H41.2884L41.8757 16.6948H45.4897L45.7156 15.3697H42.1015Z" fill="url(#paint0_linear_1_145)"/>
<defs>
<linearGradient id="paint0_linear_1_145" x1="7.8781" y1="2.78752e-06" x2="71.0382" y2="39.1144" gradientUnits="userSpaceOnUse">
<stop stop-color="#FF6263"/>
<stop offset="1" stop-color="#F43435"/>
</linearGradient>
</defs>
</svg>
