<svg width="155" height="42" viewBox="0 0 155 42" fill="none" xmlns="http://www.w3.org/2000/svg">
<path d="M64.7649 25.8613C63.4896 26.4889 62.2143 26.7172 60.8457 26.7172C56.6776 26.7172 53.7849 24.0641 53.7849 20.3271C53.7849 16.533 56.6776 13.937 60.9079 13.937C63.1164 13.937 64.9515 14.6502 66.5379 16.1906L69.7728 13.452C67.6577 11.1984 64.485 10.0002 60.6591 10.0002C53.7227 10.0002 48.6836 14.3078 48.6836 20.3271C48.6836 26.3463 53.7227 30.6539 60.5657 30.6539C63.6762 30.6539 66.9734 29.7696 69.3685 28.115V20.0133H64.7649V25.8613Z" fill="#2E2E2E"/>
<path d="M78.3418 16.9894V14.964H73.7071V30.3116H78.5595V23.0657C78.5595 20.1274 80.3325 18.7866 83.0075 18.7866C83.3808 18.7866 83.6918 18.8151 84.0962 18.8437V14.7358C81.5145 14.7358 79.5237 15.506 78.3418 16.9894Z" fill="#2E2E2E"/>
<path d="M94.7924 30.5398C100.111 30.5398 103.968 27.2592 103.968 22.6378C103.968 18.0164 100.111 14.7358 94.7924 14.7358C89.4734 14.7358 85.5853 18.0164 85.5853 22.6378C85.5853 27.2592 89.4734 30.5398 94.7924 30.5398ZM94.7924 26.8883C92.3662 26.8883 90.4999 25.2908 90.4999 22.6378C90.4999 19.9848 92.3662 18.3872 94.7924 18.3872C97.2186 18.3872 99.0538 19.9848 99.0538 22.6378C99.0538 25.2908 97.2186 26.8883 94.7924 26.8883Z" fill="#2E2E2E"/>
<path d="M118.7 14.964L113.91 25.4049L109.276 14.964H104.268L111.297 30.3116H116.305L123.366 14.964H118.7Z" fill="#2E2E2E"/>
<path d="M141.283 22.6948C141.283 17.7596 137.488 14.7358 132.574 14.7358C127.472 14.7358 123.646 18.0449 123.646 22.6378C123.646 27.2021 127.41 30.5398 133.196 30.5398C136.213 30.5398 138.546 29.684 140.101 28.0579L137.519 25.4905C136.368 26.4889 135.093 26.9739 133.32 26.9739C130.769 26.9739 128.996 25.8043 128.53 23.893H141.19C141.221 23.5221 141.283 23.0372 141.283 22.6948ZM132.605 18.102C134.782 18.102 136.368 19.3572 136.71 21.297H128.468C128.81 19.3286 130.396 18.102 132.605 18.102Z" fill="#2E2E2E"/>
<path d="M149.148 16.9894V14.964H144.513V30.3116H149.366V23.0657C149.366 20.1274 151.139 18.7866 153.814 18.7866C154.187 18.7866 154.498 18.8151 154.903 18.8437V14.7358C152.321 14.7358 150.33 15.506 149.148 16.9894Z" fill="#2E2E2E"/>
<path d="M41.5775 20.7888C41.5775 32.2701 32.2701 41.5775 20.7888 41.5775C9.30745 41.5775 0 32.2701 0 20.7888C0 9.30745 9.30745 0 20.7888 0C32.2701 0 41.5775 9.30745 41.5775 20.7888Z" fill="url(#paint0_linear_1_198)"/>
<path d="M20.8302 32.2969C20.8302 33.3223 20.0731 34.1535 19.1392 34.1535C18.2053 34.1535 17.4481 33.3223 17.4481 32.2969C17.4481 31.2714 18.2053 30.4402 19.1392 30.4402C20.0731 30.4402 20.8302 31.2714 20.8302 32.2969Z" fill="white"/>
<path d="M28.2707 32.2969C28.2707 33.3223 27.5136 34.1535 26.5796 34.1535C25.6457 34.1535 24.8886 33.3223 24.8886 32.2969C24.8886 31.2714 25.6457 30.4402 26.5796 30.4402C27.5136 30.4402 28.2707 31.2714 28.2707 32.2969Z" fill="white"/>
<path d="M23.6473 20.6185L24.6586 20.6188V23.1656C24.6586 24.2223 24.0281 25.0785 23.1606 25.196C22.7464 25.2547 22.2381 25.2841 21.6358 25.2841C16.693 25.2841 15.0576 18.673 17.1777 14.3921L11.4274 10.7469C10.8613 10.3883 10.1374 10.6012 9.81054 11.2227C9.48356 11.8443 9.6776 12.6391 10.2437 12.9981L12.4581 14.4019C10.3889 21.8177 14.1325 28.9811 21.3534 28.9811C22.8029 28.9811 24.0923 28.8738 25.2217 28.6584C25.5137 28.6036 25.7824 28.5441 26.0382 28.4792C26.3239 28.4067 26.5936 28.328 26.8612 28.2428C27.6668 27.9871 28.2131 27.0853 28.2131 26.0771V17.6772C28.2131 17.2598 27.9335 16.9214 27.5887 16.9214H20.5345C20.5345 16.9214 20.7134 17.4926 21.0491 18.1859C21.5676 19.2568 22.4604 20.6185 23.6473 20.6185Z" fill="white"/>
<path d="M14.5034 10.5812C17.1291 7.67073 21.1381 7.37737 24.8213 7.43067C25.1941 7.43611 25.5665 7.44155 25.9378 7.44337C26.0563 7.44373 26.1379 7.575 26.0943 7.69612C25.2884 9.93536 24.5846 10.9776 22.4829 11.1411C20.8489 11.1411 19.3163 11.7336 18.1943 12.9209L14.5034 10.5812Z" fill="white"/>
<defs>
<linearGradient id="paint0_linear_1_198" x1="9.00847" y1="1.48491" x2="43.821" y2="33.9766" gradientUnits="userSpaceOnUse">
<stop stop-color="#FF5E5F"/>
<stop offset="1" stop-color="#F54748"/>
</linearGradient>
</defs>
</svg>
