<svg width="134" height="129" viewBox="0 0 134 129" fill="none" xmlns="http://www.w3.org/2000/svg">
<g filter="url(#filter0_d_1_135)">
<path fill-rule="evenodd" clip-rule="evenodd" d="M34.6843 19.8139H32.5652C31.3949 19.8139 30.4462 20.7614 30.4462 21.9302V37.2731C30.4462 38.4419 31.3949 39.3894 32.5652 39.3894H57.4642C58.6345 39.3894 59.5833 38.4419 59.5833 37.2731V21.9302C59.5833 20.7614 58.6345 19.8139 57.4642 19.8139H55.3452V15.3169C55.3452 9.61905 50.7201 5.00006 45.0147 5.00006C39.3094 5.00006 34.6843 9.61905 34.6843 15.3169V19.8139ZM36.8034 19.8139H53.2261V15.3169C53.2261 10.7878 49.5497 7.11633 45.0147 7.11633C40.4797 7.11633 36.8034 10.7878 36.8034 15.3169V19.8139ZM46.0304 28.5058C46.5354 28.175 46.8689 27.6046 46.8689 26.9563C46.8689 25.9337 46.0388 25.1046 45.0147 25.1046C43.9907 25.1046 43.1605 25.9337 43.1605 26.9563C43.1605 27.6046 43.494 28.175 43.999 28.5058C43.9705 28.6016 43.9552 28.7031 43.9552 28.8081V30.9243C43.9552 31.5088 44.4295 31.9825 45.0147 31.9825C45.5999 31.9825 46.0743 31.5088 46.0743 30.9243V28.8081C46.0743 28.7031 46.0589 28.6016 46.0304 28.5058Z" fill="url(#paint0_linear_1_135)"/>
<path fill-rule="evenodd" clip-rule="evenodd" d="M50.5768 41.5056V60.0229C50.5768 62.9449 52.9486 65.3136 55.8744 65.3136H81.9251L93.9415 73.6777C94.644 74.1666 95.6069 73.6646 95.6069 72.8095V65.3136H98.2557C101.182 65.3136 103.553 62.9449 103.553 60.0229V36.2149C103.553 33.293 101.182 30.9243 98.2557 30.9243H61.7019V37.2731C61.7019 39.6107 59.8044 41.5056 57.4637 41.5056H50.5768ZM63.2912 40.4475C63.2912 39.863 63.7655 39.3893 64.3507 39.3893H89.7795C90.3646 39.3893 90.839 39.863 90.839 40.4475C90.839 41.0319 90.3646 41.5056 89.7795 41.5056H64.3507C63.7655 41.5056 63.2912 41.0319 63.2912 40.4475ZM63.2912 47.8544C63.2912 47.27 63.7655 46.7963 64.3507 46.7963H89.7795C90.3646 46.7963 90.839 47.27 90.839 47.8544C90.839 48.4388 90.3646 48.9125 89.7795 48.9125H64.3507C63.7655 48.9125 63.2912 48.4388 63.2912 47.8544ZM64.3507 54.2032C63.7655 54.2032 63.2912 54.6769 63.2912 55.2613C63.2912 55.8457 63.7655 56.3195 64.3507 56.3195H89.7795C90.3646 56.3195 90.839 55.8457 90.839 55.2613C90.839 54.6769 90.3646 54.2032 89.7795 54.2032H64.3507Z" fill="url(#paint1_linear_1_135)"/>
</g>
<defs>
<filter id="filter0_d_1_135" x="0.446167" y="6.10352e-05" width="133.107" height="128.869" filterUnits="userSpaceOnUse" color-interpolation-filters="sRGB">
<feFlood flood-opacity="0" result="BackgroundImageFix"/>
<feColorMatrix in="SourceAlpha" type="matrix" values="0 0 0 0 0 0 0 0 0 0 0 0 0 0 0 0 0 0 127 0" result="hardAlpha"/>
<feOffset dy="25"/>
<feGaussianBlur stdDeviation="15"/>
<feColorMatrix type="matrix" values="0 0 0 0 0.972549 0 0 0 0 0.262745 0 0 0 0 0.266667 0 0 0 0.1 0"/>
<feBlend mode="normal" in2="BackgroundImageFix" result="effect1_dropShadow_1_135"/>
<feBlend mode="normal" in="SourceGraphic" in2="effect1_dropShadow_1_135" result="shape"/>
</filter>
<linearGradient id="paint0_linear_1_135" x1="45.0147" y1="5.00006" x2="45.0147" y2="39.3894" gradientUnits="userSpaceOnUse">
<stop stop-color="#FF7374"/>
<stop offset="1" stop-color="#E22123"/>
</linearGradient>
<linearGradient id="paint1_linear_1_135" x1="77.0651" y1="30.9243" x2="77.0651" y2="73.8695" gradientUnits="userSpaceOnUse">
<stop stop-color="#FF7374"/>
<stop offset="1" stop-color="#E22123"/>
</linearGradient>
</defs>
</svg>
