<svg width="24" height="24" viewBox="0 0 24 24" fill="none" xmlns="http://www.w3.org/2000/svg">
<path fill-rule="evenodd" clip-rule="evenodd" d="M1.01408 10.0838C0.9409 9.79112 1.16228 9.50757 1.46398 9.50757H22.536C22.8377 9.50757 23.0591 9.79112 22.986 10.0838L20.0593 21.79C19.9561 22.2029 19.5851 22.4926 19.1595 22.4926H4.84044C4.41484 22.4926 4.04385 22.2029 3.94063 21.79L1.01408 10.0838ZM12.75 13.6251C12.75 13.2109 12.4142 12.8751 12 12.8751C11.5858 12.8751 11.25 13.2109 11.25 13.6251V18.3751C11.25 18.7893 11.5858 19.1251 12 19.1251C12.4142 19.1251 12.75 18.7893 12.75 18.3751V13.6251ZM17.0688 13.0636C17.458 13.2052 17.6588 13.6356 17.517 14.0249L15.8925 18.4884C15.7508 18.8776 15.3204 19.0783 14.9312 18.9366C14.542 18.795 14.3413 18.3646 14.483 17.9754L16.1075 13.5118C16.2492 13.1226 16.6796 12.9219 17.0688 13.0636ZM7.89245 13.5118C7.7508 13.1226 7.3204 12.9219 6.9312 13.0636C6.54195 13.2052 6.34125 13.6356 6.48295 14.0249L8.1075 18.4884C8.2492 18.8776 8.6796 19.0783 9.0688 18.9366C9.45805 18.795 9.65875 18.3646 9.51705 17.9754L7.89245 13.5118Z" fill="#3C3737"/>
<path d="M18.5 10.5L13.5887 4.07758C12.7882 3.03078 11.2118 3.03078 10.4113 4.07758L5.5 10.5" stroke="#3C3737" stroke-width="2" stroke-linecap="round" stroke-linejoin="round"/>
</svg>
